<svg version="1.1" xmlns="http://www.w3.org/2000/svg" width="1024" height="1024">
<path d="M0 0 C337.92 0 675.84 0 1024 0 C1024 337.92 1024 675.84 1024 1024 C686.08 1024 348.16 1024 0 1024 C0 686.08 0 348.16 0 0 Z " fill="#FEFEFE" transform="translate(0,0)"/>
<path d="M0 0 C4.763 4.496 8.375 9.527 11.781 15.102 C12.292 14.943 12.802 14.784 13.328 14.621 C20.802 13.038 30.465 12.641 37.141 16.777 C42.835 21.374 45.594 26.174 47.781 33.102 C46.572 25.303 44.118 19.35 38.406 13.789 C30.053 8.419 22.775 8.302 13.031 9.602 C11.918 9.849 11.918 9.849 10.781 10.102 C10.844 7.852 10.844 7.852 11.781 5.102 C17.094 0.53 22.422 0.431 29.277 0.664 C37.863 1.736 43.615 5.996 49.027 12.578 C60.423 28.974 58.519 47.074 55.969 65.852 C55.804 67.071 55.638 68.29 55.468 69.546 C54.363 77.215 52.761 84.615 50.781 92.102 C48.512 100.505 48.512 100.505 49.926 108.812 C51.467 111.158 51.467 111.158 53.203 113.137 C58.462 119.684 57.384 128.457 56.539 136.371 C53.978 148.782 46.436 159.234 36.031 166.102 C31.237 169.102 31.237 169.102 27.781 169.102 C28.235 171.936 28.694 174.769 29.156 177.602 C29.283 178.393 29.409 179.185 29.539 180 C30.17 183.848 30.878 187.613 31.883 191.383 C32.636 194.499 32.979 196.932 32.781 200.102 C33.736 200.032 34.692 199.962 35.676 199.891 C45.039 199.499 50.897 200.569 58.781 206.102 C59.689 206.679 60.596 207.257 61.531 207.852 C68.066 214.386 75.159 224.256 76.156 233.625 C78.102 237.788 78.904 237.935 83.074 239.473 C85.364 240.189 87.663 240.876 89.969 241.539 C92.444 242.307 94.92 243.077 97.395 243.848 C98.639 244.225 99.884 244.603 101.167 244.992 C117.454 249.993 133.29 256.018 148.781 263.102 C149.515 263.437 150.248 263.772 151.003 264.117 C179.129 277.145 198.336 295.04 209.781 324.102 C214.493 337.108 217.345 350.514 219.781 364.102 C220.073 365.655 220.364 367.208 220.656 368.762 C222.278 377.654 223.209 386.399 223.57 395.43 C223.7 398.971 223.7 398.971 224.282 401.898 C225.235 408.013 225.025 414.236 225.031 420.414 C225.033 421.144 225.034 421.874 225.035 422.626 C225.029 439.386 223.766 455.816 219.537 472.081 C218.299 477.029 217.368 482.032 216.406 487.039 C212.753 505.563 208.233 523.58 202.568 541.593 C201.517 544.945 200.493 548.304 199.469 551.664 C198.603 554.488 197.737 557.209 196.613 559.941 C195.567 563.914 196.061 567.14 196.781 571.102 C199.553 587.076 201.167 602.4 201.094 618.602 C201.091 619.397 201.088 620.192 201.085 621.011 C201.013 634.174 201.013 634.174 199.781 639.102 C228.161 639.102 256.541 639.102 285.781 639.102 C285.781 640.752 285.781 642.402 285.781 644.102 C34.651 644.102 -216.479 644.102 -475.219 644.102 C-475.219 642.452 -475.219 640.802 -475.219 639.102 C-448.819 638.772 -422.419 638.442 -395.219 638.102 C-396.869 636.452 -398.519 634.802 -400.219 633.102 C-404.806 627.258 -407.012 620.621 -409.25 613.621 C-409.788 611.986 -409.788 611.986 -410.336 610.319 C-411.474 606.854 -412.597 603.384 -413.719 599.914 C-415.204 595.356 -416.694 590.801 -418.188 586.246 C-418.546 585.15 -418.904 584.054 -419.273 582.925 C-421.325 576.688 -423.529 570.555 -425.958 564.454 C-429.069 556.18 -431.642 547.704 -434.344 539.289 C-435.276 536.391 -436.21 533.493 -437.146 530.597 C-437.724 528.808 -438.299 527.02 -438.873 525.231 C-440.312 520.766 -441.844 516.36 -443.515 511.977 C-444.625 509.02 -445.615 506.025 -446.609 503.027 C-446.831 502.361 -447.052 501.696 -447.28 501.01 C-447.76 499.567 -448.239 498.124 -448.717 496.681 C-449.486 494.363 -450.256 492.046 -451.027 489.729 C-453.754 481.533 -456.473 473.335 -459.189 465.136 C-460.534 461.077 -461.881 457.019 -463.228 452.962 C-463.884 450.987 -464.538 449.011 -465.191 447.036 C-466.114 444.242 -467.041 441.449 -467.969 438.656 C-468.238 437.838 -468.508 437.019 -468.785 436.176 C-470.145 432.095 -471.603 428.086 -473.224 424.101 C-475.165 419.317 -476.817 414.478 -478.391 409.562 C-478.674 408.686 -478.958 407.81 -479.251 406.907 C-480.16 404.098 -481.065 401.288 -481.969 398.477 C-483.215 394.61 -484.462 390.744 -485.711 386.879 C-486.015 385.938 -486.319 384.997 -486.632 384.027 C-488.338 378.762 -490.089 373.518 -491.914 368.293 C-492.291 367.208 -492.668 366.123 -493.056 365.004 C-493.719 363.109 -494.395 361.217 -495.085 359.332 C-497.276 353.041 -498.857 346.181 -496.284 339.775 C-493.516 334.616 -489.479 331.538 -484.219 329.102 C-481.36 328.253 -478.811 327.975 -475.835 327.97 C-474.958 327.966 -474.082 327.962 -473.18 327.958 C-472.221 327.959 -471.263 327.96 -470.276 327.961 C-469.255 327.958 -468.233 327.955 -467.181 327.952 C-463.748 327.943 -460.315 327.942 -456.882 327.94 C-454.425 327.936 -451.968 327.931 -449.511 327.925 C-442.826 327.912 -436.142 327.906 -429.458 327.901 C-425.283 327.899 -421.107 327.894 -416.931 327.89 C-405.364 327.878 -393.797 327.867 -382.229 327.864 C-381.489 327.864 -380.749 327.864 -379.986 327.863 C-379.244 327.863 -378.502 327.863 -377.738 327.863 C-376.234 327.862 -374.731 327.862 -373.228 327.861 C-372.482 327.861 -371.736 327.861 -370.968 327.861 C-358.892 327.857 -346.816 327.839 -334.741 327.816 C-322.335 327.792 -309.93 327.78 -297.524 327.779 C-290.562 327.778 -283.6 327.772 -276.638 327.754 C-270.086 327.737 -263.535 327.735 -256.983 327.744 C-254.582 327.745 -252.18 327.74 -249.778 327.73 C-246.493 327.718 -243.208 327.724 -239.923 327.734 C-238.979 327.726 -238.034 327.718 -237.06 327.71 C-228.187 327.775 -220.22 329.294 -213.625 335.547 C-211.29 338.128 -209.219 340.528 -209.219 344.102 C-208.559 344.102 -207.899 344.102 -207.219 344.102 C-206.976 343.409 -206.734 342.717 -206.484 342.004 C-192.962 310.995 -154.871 289.411 -125.219 277.102 C-123.833 276.61 -122.443 276.133 -121.047 275.672 C-111.966 272.63 -107.381 268.856 -102.172 261.027 C-100.634 258.723 -99.355 256.839 -97.219 255.102 C-96.559 255.102 -95.899 255.102 -95.219 255.102 C-95.799 254.253 -96.379 253.405 -96.977 252.531 C-112.481 229.458 -116.433 204.578 -116.344 177.227 C-116.343 176.444 -116.342 175.662 -116.341 174.856 C-116.321 159.922 -115.904 145.021 -115.219 130.102 C-116.869 130.102 -118.519 130.102 -120.219 130.102 C-120.844 127.727 -120.844 127.727 -121.219 125.102 C-120.559 124.442 -119.899 123.782 -119.219 123.102 C-118.229 123.102 -117.239 123.102 -116.219 123.102 C-116.229 121.907 -116.24 120.712 -116.25 119.481 C-116.287 115.013 -116.31 110.546 -116.329 106.079 C-116.339 104.152 -116.352 102.225 -116.37 100.298 C-116.394 97.515 -116.405 94.732 -116.414 91.949 C-116.424 91.099 -116.435 90.248 -116.445 89.372 C-116.446 83.706 -115.672 78.577 -114.219 73.102 C-115.391 73.076 -116.562 73.05 -117.77 73.023 C-132.614 72.551 -143.946 70.004 -154.469 58.852 C-161.27 50.267 -162.489 40.783 -161.528 30.133 C-159.696 18.089 -149.747 8.692 -140.656 1.477 C-128.036 -7.558 -114.145 -12.95 -99.219 -16.898 C-98.559 -17.078 -97.9 -17.257 -97.22 -17.442 C-66.35 -25.448 -24.794 -21.215 0 0 Z " fill="#2C222A" transform="translate(599.21875,250.8984375)"/>
<path d="M0 0 C1.344 -0.01 1.344 -0.01 2.715 -0.02 C3.696 -0.016 4.676 -0.013 5.686 -0.01 C6.73 -0.015 7.775 -0.019 8.851 -0.024 C12.363 -0.037 15.874 -0.035 19.385 -0.033 C21.898 -0.039 24.411 -0.046 26.924 -0.054 C33.049 -0.069 39.173 -0.076 45.297 -0.077 C50.275 -0.078 55.253 -0.082 60.231 -0.088 C74.343 -0.106 88.456 -0.115 102.568 -0.114 C103.329 -0.113 104.09 -0.113 104.874 -0.113 C106.016 -0.113 106.016 -0.113 107.182 -0.113 C119.529 -0.112 131.876 -0.131 144.222 -0.16 C156.899 -0.188 169.576 -0.202 182.252 -0.2 C189.37 -0.2 196.487 -0.205 203.604 -0.227 C210.297 -0.247 216.989 -0.246 223.682 -0.232 C226.141 -0.23 228.599 -0.234 231.057 -0.246 C234.409 -0.262 237.761 -0.253 241.113 -0.237 C242.089 -0.247 243.065 -0.258 244.07 -0.268 C249.742 -0.21 253.036 0.448 257.527 4.257 C261.383 8.197 262.857 12.3 264.464 17.445 C264.722 18.243 264.98 19.041 265.246 19.864 C267.125 25.755 268.759 31.699 270.355 37.671 C272.415 45.191 274.908 52.56 277.402 59.945 C280.652 69.574 283.793 79.219 286.686 88.963 C288.571 95.251 290.572 101.495 292.624 107.73 C292.898 108.564 293.172 109.397 293.454 110.256 C294.832 114.451 296.218 118.643 297.616 122.832 C298.127 124.382 298.637 125.933 299.148 127.484 C299.508 128.55 299.508 128.55 299.876 129.637 C301.067 133.283 301.81 136.414 301.527 140.257 C290.76 140.612 280.512 140.102 269.873 138.324 C259.717 136.49 259.717 136.49 250.089 139.07 C246.889 141.802 245.645 143.364 245.089 147.57 C245.62 152.044 247.125 154.454 250.527 157.257 C253.113 158.802 255.752 160.087 258.527 161.257 C257.932 161.546 257.338 161.835 256.726 162.132 C251.277 164.792 251.277 164.792 247.527 169.257 C247.256 172.841 247.267 175.56 248.527 178.945 C251.325 182.181 254.635 183.603 258.527 185.257 C257.867 185.876 257.207 186.495 256.527 187.132 C253.728 191.504 253.598 195.195 254.527 200.257 C259.334 207.469 269.632 210.48 277.527 213.257 C277.444 214.289 277.362 215.32 277.277 216.382 C277.583 221.127 278.361 222.715 281.527 226.257 C291.211 233.585 303.262 237.42 315.362 237.355 C316.958 237.35 316.958 237.35 318.585 237.345 C320.227 237.333 320.227 237.333 321.902 237.32 C323.019 237.315 324.137 237.311 325.288 237.306 C328.034 237.294 330.78 237.278 333.527 237.257 C336.551 245.379 339.27 253.515 341.639 261.851 C342.843 266.053 344.179 270.169 345.658 274.281 C350.053 286.629 350.053 286.629 348.527 293.257 C346.42 297.619 342.993 299.857 338.569 301.654 C334.743 302.784 330.919 302.669 326.958 302.638 C326.013 302.643 325.068 302.648 324.095 302.652 C320.938 302.664 317.782 302.655 314.625 302.645 C312.358 302.65 310.091 302.655 307.824 302.661 C301.671 302.675 295.518 302.67 289.364 302.66 C282.918 302.653 276.473 302.66 270.027 302.664 C258.503 302.67 246.979 302.661 235.456 302.646 C225.026 302.632 214.597 302.635 204.168 302.648 C192.041 302.664 179.914 302.67 167.787 302.662 C161.373 302.657 154.96 302.656 148.547 302.666 C142.511 302.675 136.476 302.669 130.441 302.651 C128.232 302.648 126.023 302.649 123.814 302.655 C93.284 302.739 93.284 302.739 83.527 293.257 C78.271 285.37 75.839 275.707 72.964 266.757 C72.03 263.87 71.091 260.985 70.148 258.101 C69.921 257.406 69.694 256.711 69.46 255.995 C67.982 251.509 66.316 247.149 64.512 242.788 C62.388 237.333 60.719 231.714 58.964 226.132 C58.194 223.692 57.422 221.251 56.648 218.812 C56.312 217.744 55.976 216.677 55.63 215.577 C54.592 212.456 53.458 209.392 52.292 206.318 C51.027 202.914 49.89 199.47 48.749 196.023 C48.497 195.264 48.244 194.504 47.984 193.722 C47.184 191.318 46.386 188.912 45.589 186.507 C45.059 184.911 44.528 183.315 43.997 181.718 C42.971 178.632 41.946 175.545 40.922 172.458 C38.867 166.27 36.804 160.084 34.74 153.899 C33.424 149.956 32.114 146.012 30.808 142.066 C30.214 140.275 29.62 138.485 29.027 136.695 C28.731 135.801 28.436 134.907 28.132 133.986 C27.693 132.664 27.693 132.664 27.245 131.316 C26.987 130.535 26.728 129.755 26.462 128.95 C25.726 126.831 24.946 124.726 24.15 122.629 C22.235 117.553 20.541 112.407 18.839 107.257 C18.495 106.222 18.151 105.187 17.797 104.121 C16.337 99.724 14.881 95.327 13.424 90.929 C12.355 87.705 11.285 84.481 10.214 81.257 C9.889 80.274 9.564 79.29 9.229 78.277 C7.439 72.889 5.54 67.565 3.527 62.257 C2.507 59.049 1.547 55.828 0.589 52.601 C-0.372 49.578 -1.454 46.627 -2.581 43.663 C-4.549 38.357 -6.347 32.992 -8.161 27.632 C-8.785 25.83 -8.785 25.83 -9.421 23.992 C-9.813 22.829 -10.206 21.666 -10.61 20.468 C-10.968 19.419 -11.326 18.371 -11.695 17.29 C-12.93 12.479 -13.098 9.417 -10.723 5.007 C-7.525 1.098 -4.998 0.009 0 0 Z " fill="#DEDEDE" transform="translate(121.47347831726074,586.7427310943604)"/>
<path d="M0 0 C0.659 0.001 1.318 0.001 1.996 0.002 C12.949 0.043 23.033 0.92 33.438 4.375 C34.103 4.595 34.768 4.814 35.453 5.041 C55.653 11.955 69.576 24.245 80.227 42.43 C82.508 47.979 81.316 52.547 79.812 58.188 C79.439 59.618 79.066 61.049 78.695 62.48 C78.492 63.262 78.289 64.044 78.079 64.849 C77.146 68.524 76.284 72.214 75.417 75.905 C52.165 174.562 52.165 174.562 26.375 192 C-3.956 210.173 -37.878 211.342 -71.941 205.043 C-75.306 204.422 -78.673 203.827 -82.043 203.24 C-85.801 202.584 -89.557 201.918 -93.312 201.25 C-94.033 201.122 -94.753 200.994 -95.495 200.862 C-97.555 200.494 -99.614 200.119 -101.672 199.742 C-102.857 199.527 -104.043 199.311 -105.265 199.089 C-108.47 198.395 -111.455 197.414 -114.562 196.375 C-116.464 195.987 -118.376 195.642 -120.293 195.34 C-121.343 195.17 -122.393 195.001 -123.475 194.826 C-124.555 194.657 -125.636 194.487 -126.75 194.312 C-128.911 193.97 -131.071 193.625 -133.23 193.277 C-134.182 193.128 -135.134 192.978 -136.114 192.824 C-138.562 192.375 -138.562 192.375 -141.562 191.375 C-140.029 187.985 -138.016 185.255 -135.75 182.312 C-120.603 161.704 -118.872 134.761 -122.145 110.086 C-124.028 99.302 -128.753 89.692 -133.8 80.061 C-134.562 78.375 -134.562 78.375 -134.562 76.375 C-131.752 75.411 -128.939 74.454 -126.125 73.5 C-125.342 73.231 -124.559 72.961 -123.752 72.684 C-100.672 64.895 -74.485 66.558 -52.562 77.375 C-51.323 77.958 -50.084 78.54 -48.844 79.121 C-34.698 85.865 -21.219 93.827 -9.562 104.375 C-9.046 104.837 -8.529 105.299 -7.997 105.775 C2.03 114.856 9.607 125.122 15.438 137.375 C16.757 137.375 18.077 137.375 19.438 137.375 C20.017 127.586 13.925 119.214 7.805 111.996 C7.024 111.131 6.242 110.266 5.438 109.375 C4.991 108.879 4.544 108.383 4.083 107.872 C-10.526 91.89 -28.235 81.766 -47.562 72.375 C-48.729 71.807 -49.896 71.238 -51.098 70.652 C-58.17 67.471 -65.52 65.803 -73.07 64.172 C-76.562 63.375 -76.562 63.375 -78.562 62.375 C-81.115 42.101 -81.115 42.101 -76.125 34.562 C-73.871 31.812 -73.871 31.812 -71.562 29.375 C-70.914 28.633 -70.266 27.89 -69.598 27.125 C-51.934 8.053 -25.248 -0.035 0 0 Z " fill="#F8BC5B" transform="translate(730.5625,666.625)"/>
<path d="M0 0 C8.936 2.533 17.684 5.596 26.438 8.688 C27.192 8.954 27.947 9.22 28.725 9.495 C54.091 18.472 80.249 28.42 101 46 C101.982 46.762 102.965 47.524 103.977 48.309 C107.316 51.1 109.637 54.307 112 57.938 C112.43 58.594 112.86 59.25 113.303 59.926 C120.055 70.511 123.824 81.906 127 94 C127.509 95.791 127.509 95.791 128.027 97.617 C130.477 106.361 132.241 115.088 133.684 124.045 C133.965 125.786 134.261 127.524 134.559 129.262 C135.094 132.502 135.559 135.745 136 139 C136.092 139.64 136.183 140.28 136.278 140.94 C137.95 152.989 138.188 164.982 138.188 177.125 C138.188 177.885 138.189 178.645 138.19 179.429 C138.189 187.674 138.014 195.804 137 204 C134.41 201.49 132.474 198.859 130.438 195.875 C117.35 177.814 96.362 167.323 74.68 163.695 C44.618 159.517 15.752 165.538 -9.039 183.16 C-14.71 187.589 -19.239 192.363 -23.539 198.129 C-24.021 198.746 -24.503 199.364 -25 200 C-25.33 200 -25.66 200 -26 200 C-26.637 181.581 -21.292 162.78 -14 146 C-13.66 145.21 -13.319 144.421 -12.968 143.607 C0.162 113.606 20.332 87.867 48 70 C48.967 69.371 49.934 68.742 50.93 68.094 C65.801 58.905 82.6 54.163 100 53 C100.33 52.01 100.66 51.02 101 50 C83.813 45.061 64.446 53.744 49.562 61.879 C11.453 84.552 -15.811 122.486 -26.875 165.312 C-27.409 167.465 -27.935 169.619 -28.441 171.779 C-29.219 174.872 -30.124 177.933 -31 181 C-46.84 181.495 -46.84 181.495 -63 182 C-63 183.32 -63 184.64 -63 186 C-52.77 186.33 -42.54 186.66 -32 187 C-31.67 201.52 -31.34 216.04 -31 231 C-34.712 231.041 -38.425 231.082 -42.25 231.125 C-55.636 231.494 -67.662 234.278 -79.891 239.699 C-83.336 241.141 -84.564 241.356 -88 240 C-89.683 238.687 -91.35 237.354 -93 236 C-95.088 235.362 -95.088 235.362 -97 235 C-96.588 223.713 -94.391 213.003 -92 202 C-91.749 200.83 -91.499 199.66 -91.241 198.454 C-83.696 163.364 -73.294 129.649 -58.983 96.715 C-58.18 94.866 -57.381 93.015 -56.582 91.164 C-55.874 89.531 -55.874 89.531 -55.152 87.866 C-54.226 85.562 -53.508 83.421 -53 81 C-55.751 81.568 -57.507 82.304 -59.157 84.634 C-60.387 86.95 -61.488 89.295 -62.562 91.688 C-62.982 92.598 -63.402 93.508 -63.835 94.447 C-71.801 112.08 -79.272 130.345 -84.004 149.129 C-84.984 152.939 -86.148 156.638 -87.375 160.375 C-94.395 182.421 -98.683 204.976 -102.447 227.756 C-102.917 230.516 -103.433 233.258 -104 236 C-106.97 236 -109.94 236 -113 236 C-113.201 224.891 -113.101 213.977 -111.848 202.931 C-111.187 197.076 -110.726 191.232 -110.348 185.353 C-107.397 140.134 -99.091 91.217 -67 57 C-63.684 58.44 -61.563 60.225 -59.059 62.816 C-57.943 63.957 -57.943 63.957 -56.806 65.122 C-56.024 65.927 -55.243 66.733 -54.438 67.562 C-44.15 79.467 -44.15 79.467 -30.953 86.461 C-27.241 85.882 -26.429 84.808 -24 82 C-19.31 74.139 -16.071 65.508 -12.938 56.938 C-12.506 55.764 -12.075 54.591 -11.631 53.383 C-8.141 43.722 -5.224 34.027 -3 24 C-2.768 22.961 -2.536 21.922 -2.297 20.852 C-0.914 13.959 -0.423 7.009 0 0 Z " fill="#AB9F71" transform="translate(677,497)"/>
<path d="M0 0 C0.495 0.99 0.495 0.99 1 2 C2.32 2 3.64 2 5 2 C5.33 1.34 5.66 0.68 6 0 C15.666 13.639 21.725 26.724 26 43 C26.339 44.194 26.678 45.387 27.027 46.617 C29.477 55.361 31.241 64.088 32.684 73.045 C32.965 74.786 33.261 76.524 33.559 78.262 C34.094 81.502 34.559 84.745 35 88 C35.092 88.64 35.183 89.28 35.278 89.94 C36.95 101.989 37.188 113.982 37.188 126.125 C37.188 126.885 37.189 127.645 37.19 128.429 C37.189 136.674 37.014 144.804 36 153 C33.41 150.49 31.474 147.859 29.438 144.875 C16.35 126.814 -4.638 116.323 -26.32 112.695 C-56.382 108.517 -85.248 114.538 -110.039 132.16 C-115.71 136.589 -120.239 141.363 -124.539 147.129 C-125.262 148.055 -125.262 148.055 -126 149 C-126.33 149 -126.66 149 -127 149 C-127.637 130.581 -122.292 111.78 -115 95 C-114.489 93.816 -114.489 93.816 -113.968 92.607 C-100.838 62.606 -80.668 36.867 -53 19 C-52.033 18.371 -51.066 17.742 -50.07 17.094 C-35.829 8.294 -19.518 3.209 -2.793 2.309 C-2.201 2.207 -1.61 2.105 -1 2 C-0.67 1.34 -0.34 0.68 0 0 Z " fill="#AB9F71" transform="translate(778,548)"/>
<path d="M0 0 C-1.503 3.975 -3.349 7.671 -5.312 11.438 C-12.784 26.021 -12.784 26.021 -14 42 C-13.009 43.935 -13.009 43.935 -11 45 C-0.967 44.811 6.373 36.824 13 30 C13.681 29.258 14.361 28.515 15.062 27.75 C17.094 25.915 18.324 25.382 21 25 C21.34 26.065 21.681 27.13 22.031 28.227 C27.085 45.223 27.085 45.223 38.25 57.883 C39.158 58.251 40.065 58.62 41 59 C40.828 73.117 38.816 86.21 35.681 99.958 C34.803 103.879 34.011 107.814 33.218 111.753 C30.986 122.795 28.416 133.739 25.74 144.681 C23.618 153.379 21.569 162.09 19.591 170.821 C19.284 172.175 18.976 173.529 18.667 174.882 C18.236 176.772 17.809 178.663 17.383 180.555 C17.139 181.632 16.896 182.71 16.645 183.82 C15.959 187.201 15.457 190.581 15 194 C8.874 187.874 8.874 187.874 8.855 181.778 C8.851 181.127 8.848 180.477 8.845 179.806 C8.835 177.635 8.833 175.464 8.832 173.293 C8.829 171.773 8.825 170.253 8.822 168.733 C8.816 165.527 8.814 162.322 8.815 159.116 C8.815 155.864 8.808 152.613 8.794 149.361 C8.657 116.525 8.657 116.525 10.532 101.872 C11.008 97.933 11.227 94.088 11.375 90.125 C11.975 77.022 14.165 63.976 16 51 C14.515 51.495 14.515 51.495 13 52 C7.055 67.607 6.424 85.776 4.875 102.25 C4.799 103.051 4.724 103.851 4.646 104.676 C3.098 122.312 2.756 139.996 2.438 157.688 C2.394 159.962 2.351 162.236 2.307 164.51 C2.201 170.006 2.099 175.503 2 181 C-1.595 180.355 -4.537 179.317 -7.863 177.809 C-10.454 176.828 -13.045 176.279 -15.75 175.688 C-26.707 173.041 -35.906 167.645 -41.875 157.957 C-43.086 155.846 -44.27 153.719 -45.422 151.574 C-46.895 148.767 -46.895 148.767 -50 147 C-50.315 144.803 -50.315 144.803 -50.227 142.094 C-50.199 141.101 -50.17 140.109 -50.142 139.086 C-50.072 137.558 -50.072 137.558 -50 136 C-49.949 134.627 -49.949 134.627 -49.897 133.227 C-49.188 117.44 -46.872 102.084 -44.033 86.566 C-43.9 85.835 -43.767 85.104 -43.63 84.351 C-43.265 82.356 -42.892 80.362 -42.519 78.368 C-42.077 75.499 -41.89 72.892 -42 70 C-42.99 69.67 -43.98 69.34 -45 69 C-45.606 71.687 -46.21 74.375 -46.812 77.062 C-47.085 78.275 -47.085 78.275 -47.363 79.512 C-48.248 83.487 -49.105 87.463 -49.863 91.465 C-50.058 92.489 -50.058 92.489 -50.257 93.533 C-50.607 95.406 -50.949 97.281 -51.289 99.156 C-52 102 -52 102 -54 104 C-54.654 101.523 -55.298 99.043 -55.938 96.562 C-56.12 95.875 -56.302 95.187 -56.49 94.479 C-58.798 85.459 -59.142 76.72 -59.062 67.438 C-59.058 66.429 -59.053 65.42 -59.049 64.381 C-59.037 61.921 -59.021 59.46 -59 57 C-60.65 57.66 -62.3 58.32 -64 59 C-65.004 86.495 -65.004 86.495 -56.051 112.09 C-52.723 118.14 -54.241 125.177 -54.669 131.809 C-54.812 134.058 -54.939 136.307 -55.064 138.557 C-55.153 139.987 -55.242 141.417 -55.332 142.848 C-55.412 144.147 -55.491 145.447 -55.573 146.785 C-56 150 -56 150 -58 153 C-58.385 154.655 -58.728 156.322 -59 158 C-59.66 158 -60.32 158 -61 158 C-62.815 152.149 -64.622 146.297 -66.355 140.422 C-68.921 131.746 -71.591 123.129 -74.5 114.562 C-77.801 104.833 -80.663 95.005 -83.381 85.098 C-84.028 82.798 -84.028 82.798 -85.23 79.84 C-86.553 74.959 -85.64 71.298 -83.434 66.824 C-82.775 65.789 -82.116 64.754 -81.438 63.688 C-80.905 62.85 -80.905 62.85 -80.362 61.996 C-76.93 56.697 -73.073 51.814 -69 47 C-68.487 46.364 -67.974 45.729 -67.445 45.074 C-64.377 41.334 -61.06 38.119 -57.363 35 C-55.626 33.53 -53.919 32.025 -52.23 30.5 C-39.072 18.743 -23.828 10.592 -8 3 C-6.902 2.433 -5.803 1.866 -4.672 1.281 C-2 0 -2 0 0 0 Z " fill="#AB9F71" transform="translate(481,535)"/>
<path d="M0 0 C2.634 2.324 3.808 4.543 5.188 7.75 C9.971 17.53 18.787 22.421 28.774 25.992 C32.547 27.185 36.341 28.298 40.141 29.404 C52.051 33.002 58.535 39.369 64.5 50.125 C72.033 63.345 84.435 66.454 98.417 70.301 C101.421 71.105 104.379 71.895 107.448 72.413 C113.536 73.47 113.536 73.47 115.926 76.199 C119.919 86.61 121.38 96.255 121.438 107.375 C121.447 108.372 121.457 109.37 121.468 110.398 C121.395 116.717 120.992 123.307 118 129 C115.168 130.875 112.311 131.411 109 132 C108.342 132.172 107.683 132.345 107.005 132.522 C98.899 134.504 90.7 134.372 82.407 134.371 C79.835 134.375 77.265 134.411 74.693 134.449 C62.301 134.534 50.815 133.613 40 127 C35.112 126.287 31.762 127.375 27.125 129 C16.204 132.552 4.014 132.122 -7 129 C-7.754 128.805 -8.508 128.611 -9.285 128.41 C-15.017 126.748 -20.673 124.192 -25 120 C-25.812 117.367 -25.812 117.367 -26 115 C-25.67 114.67 -25.34 114.34 -25 114 C-21.918 114.328 -18.952 114.761 -15.945 115.516 C-0.675 119.214 13.33 116.855 28 112 C28.495 110.02 28.495 110.02 29 108 C27.703 108.217 27.703 108.217 26.379 108.438 C8.356 111.094 -10.275 111.608 -28 107 C-29.181 106.698 -30.362 106.397 -31.578 106.086 C-44.362 102.496 -44.362 102.496 -49 98 C-50.188 94.875 -50.188 94.875 -50 92 C-48.812 90.312 -48.812 90.312 -47 89 C-44.645 88.82 -44.645 88.82 -41.812 89.125 C-40.735 89.24 -39.657 89.354 -38.547 89.473 C-34.844 90.023 -31.224 90.782 -27.562 91.562 C-10.845 94.959 5.619 93.208 22 89 C22 88.01 22 87.02 22 86 C17.505 85.837 17.505 85.837 13.088 86.491 C-6.255 91.205 -35.064 86.563 -53 78 C-55.529 75.916 -55.948 75.36 -56.438 72 C-56 69 -56 69 -54.242 67.332 C-48.789 64.092 -41.642 66.033 -35.688 67 C-18.13 69.485 0.789 69.553 18 65 C17.67 64.01 17.34 63.02 17 62 C16.079 62.01 15.158 62.021 14.209 62.032 C10.714 62.066 7.22 62.091 3.725 62.11 C2.227 62.12 0.729 62.133 -0.769 62.151 C-14.5 62.308 -27.679 61.248 -41 57.625 C-42.17 57.331 -42.17 57.331 -43.363 57.031 C-48.443 55.682 -52.647 53.979 -57 51 C-58.125 47.438 -58.125 47.438 -58 44 C-56.475 41.904 -55.562 41.112 -53.004 40.602 C-47.68 40.653 -42.584 41.189 -37.349 42.087 C-26.039 44 -15.071 44.398 -3.625 44.25 C-1.828 44.238 -0.031 44.227 1.765 44.217 C14.191 44.125 26.598 43.805 39 43 C37.38 39.936 37.38 39.936 35.149 39.308 C32.91 38.987 30.879 38.969 28.621 39.07 C14.222 39.337 14.222 39.337 9.414 35.805 C6.591 33.028 4.277 30.236 2 27 C1.126 25.909 1.126 25.909 0.234 24.797 C-4.179 18.444 -4.07 10.433 -3 3 C-1.469 1.055 -1.469 1.055 0 0 Z " fill="#F9A87A" transform="translate(430,688)"/>
<path d="M0 0 C3.396 1.228 5.925 2.562 8.688 4.875 C18.6 12.351 28.897 13.279 41 12 C43.694 11.421 46.334 10.705 49 10 C50.32 10 51.64 10 53 10 C51.883 13.515 50.641 16.951 49.266 20.371 C30.967 66.099 27.622 117.209 26 166 C24.442 166.329 24.442 166.329 22.852 166.664 C8.394 169.771 8.394 169.771 -2.5 179.188 C-2.995 180.116 -3.49 181.044 -4 182 C-4.66 182.99 -5.32 183.98 -6 185 C-15.058 182.298 -23.745 179.448 -30 172 C-30.984 163.371 -27.788 153.877 -25.75 145.562 C-25.429 144.226 -25.11 142.889 -24.791 141.552 C-24.158 138.904 -23.52 136.256 -22.877 133.609 C-21.12 126.377 -19.392 119.136 -17.683 111.892 C-17.192 109.814 -16.699 107.736 -16.204 105.659 C-7.98 70.996 -1.22 35.675 0 0 Z " fill="#A15825" transform="translate(531,567)"/>
<path d="M0 0 C1.096 0.009 2.191 0.018 3.32 0.027 C4.585 0.045 4.585 0.045 5.875 0.062 C5.925 0.793 5.975 1.523 6.027 2.275 C6.262 5.642 6.506 9.008 6.75 12.375 C6.829 13.523 6.907 14.671 6.988 15.854 C7.974 30.185 7.974 30.185 12.812 43.562 C13.317 44.542 13.821 45.522 14.34 46.531 C15.684 49.058 15.684 49.058 17.555 50.457 C19.751 53.128 19.155 55.898 19.062 59.25 C19.022 61.158 19.022 61.158 18.98 63.105 C18.946 64.081 18.911 65.057 18.875 66.062 C7.674 68.535 -3.534 70.574 -15.012 68.555 C-18.969 67.929 -22.813 67.917 -26.812 67.938 C-27.95 67.932 -27.95 67.932 -29.111 67.926 C-32.373 67.932 -35.01 68.024 -38.125 69.062 C-38.125 70.712 -38.125 72.363 -38.125 74.062 C-37.454 74.057 -36.784 74.052 -36.093 74.047 C-33.041 74.026 -29.989 74.013 -26.938 74 C-25.355 73.987 -25.355 73.987 -23.74 73.975 C-22.719 73.971 -21.697 73.968 -20.645 73.965 C-19.707 73.96 -18.77 73.954 -17.804 73.949 C-15.145 74.062 -12.716 74.469 -10.125 75.062 C-9.633 80.965 -10.561 85.236 -14.125 90.062 C-18.213 94.044 -22.149 95.379 -27.812 95.562 C-32.025 95.33 -34.995 95.098 -38.125 92.062 C-42.425 86.022 -43.143 79.265 -44.125 72.062 C-48.415 72.062 -52.705 72.062 -57.125 72.062 C-57.517 70.082 -57.909 68.103 -58.312 66.062 C-59.499 60.83 -60.992 56.882 -64.137 52.551 C-65.125 51.062 -65.125 51.062 -65.125 49.062 C-70.493 46.654 -75.309 46.226 -81.125 47.062 C-83.507 48.165 -85.469 49.399 -87.566 50.969 C-89.125 52.062 -89.125 52.062 -91.125 52.062 C-91.373 41.574 -91.09 31.404 -89.125 21.062 C-87.327 19.264 -84.436 19.624 -82 19.375 C-74.975 18.543 -68.215 16.974 -61.375 15.188 C-60.43 14.943 -59.485 14.698 -58.511 14.447 C-52.84 12.929 -47.374 11.094 -41.875 9.044 C-37.315 7.417 -32.671 6.14 -28 4.875 C-27.076 4.615 -26.151 4.356 -25.199 4.088 C-19.485 2.528 -14.016 1.64 -8.125 1.062 C-5.36 -0.32 -3.079 -0.033 0 0 Z " fill="#F9A87A" transform="translate(580.125,301.9375)"/>
<path d="M0 0 C1.81 -0.081 1.81 -0.081 3.656 -0.164 C13.624 -0.317 13.624 -0.317 17.75 3.684 C19.318 5.615 19.318 5.615 20.625 7.5 C21.298 8.429 21.971 9.359 22.664 10.316 C35.274 32.15 38.7 59.421 32.734 84.043 C29.557 93.944 25.65 103.682 18.625 111.5 C17.937 112.393 17.937 112.393 17.234 113.305 C14.509 116.555 13.118 117.419 8.812 118.125 C-5.845 117.068 -25.553 112.367 -37.375 103.5 C-37.375 103.17 -37.375 102.84 -37.375 102.5 C-36.734 102.353 -36.094 102.206 -35.434 102.055 C-28.13 100.161 -23.059 97.735 -18.941 91.238 C-9.291 72.997 -8.392 49.477 -14.172 29.859 C-17.171 21.485 -20.66 13.169 -28.688 8.625 C-29.574 8.254 -30.461 7.883 -31.375 7.5 C-31.375 6.84 -31.375 6.18 -31.375 5.5 C-29.313 4.851 -27.251 4.206 -25.188 3.562 C-23.465 3.023 -23.465 3.023 -21.707 2.473 C-14.456 0.356 -7.523 0.144 0 0 Z " fill="#F8BC5B" transform="translate(568.375,738.5)"/>
<path d="M0 0 C8.453 -0.459 14.23 0.592 21 6 C25.719 10.316 28.845 15.486 32 21 C32.619 22.072 33.237 23.145 33.875 24.25 C39.021 36.83 36.611 53.829 32.788 66.381 C31.812 69.624 30.897 72.882 29.977 76.141 C25.681 91.181 21.234 105.564 13 119 C3.173 114.483 -4.202 104.871 -11.663 97.241 C-13.098 95.776 -14.539 94.317 -15.98 92.859 C-16.825 91.998 -17.67 91.137 -18.54 90.249 C-22.927 86.238 -26.199 84.468 -32.074 84.711 C-35.727 85.259 -37.971 87.031 -40.594 89.5 C-42.787 93.399 -42.574 97.346 -42.688 101.75 C-42.739 103.082 -42.739 103.082 -42.791 104.441 C-42.873 106.627 -42.943 108.813 -43 111 C-43.99 111.495 -43.99 111.495 -45 112 C-48.128 105.743 -47.082 94.521 -45.082 88.012 C-43.593 85.414 -41.953 83.272 -40 81 C-39.38 80.262 -39.38 80.262 -38.748 79.51 C-36.292 76.588 -33.795 73.704 -31.281 70.832 C-6.669 42.64 -6.669 42.64 8 9 C6.02 9.66 4.04 10.32 2 11 C0.807 7.123 0 4.084 0 0 Z " fill="#AB9F71" transform="translate(634,458)"/>
<path d="M0 0 C3.856 2.035 6.481 4.916 8 9 C9.101 21.198 8.121 31.641 0.75 41.812 C-5.266 48.968 -11.182 52.273 -20 55 C-19.123 66.476 -17.659 77.742 -15.562 89.062 C-15.357 90.179 -15.152 91.295 -14.941 92.445 C-13.765 98.617 -12.363 104.657 -10.621 110.695 C-9.494 114.879 -9.001 118.089 -11.066 122.039 C-12.621 124.437 -14.284 126.715 -16 129 C-17.251 130.729 -18.5 132.458 -19.75 134.188 C-20.773 135.58 -20.773 135.58 -21.816 137 C-23.73 139.63 -25.602 142.285 -27.466 144.949 C-34.305 154.683 -41.846 163.825 -49.465 172.953 C-54.644 179.242 -58.562 184.888 -60 193 C-71.498 195.535 -82.369 196.985 -93 191 C-96.144 188.822 -99.072 186.456 -102 184 C-103.327 182.992 -104.659 181.989 -106 181 C-105.288 176.506 -104.402 172.071 -103.438 167.625 C-103.033 165.757 -103.033 165.757 -102.621 163.852 C-102.416 162.911 -102.211 161.97 -102 161 C-101.34 161 -100.68 161 -100 161 C-99.361 161.681 -98.721 162.361 -98.062 163.062 C-92.169 169.042 -85.875 173.415 -77.312 173.812 C-70.934 173.435 -67.398 171.51 -63 167 C-62.482 166.54 -61.964 166.08 -61.43 165.605 C-52.189 156.437 -48.962 141.228 -46 129 C-44.877 124.404 -43.878 121.37 -40.688 117.875 C-26.491 100.321 -27.428 74.15 -27.438 52.938 C-27.434 49.245 -27.424 45.552 -27.397 41.86 C-27.38 39.584 -27.377 37.307 -27.39 35.031 C-27.317 24.003 -24.733 13.153 -17.027 4.883 C-11.747 0.245 -6.993 -1.71 0 0 Z " fill="#F9A87A" transform="translate(641,361)"/>
<path d="M0 0 C0.66 0 1.32 0 2 0 C3.566 11.137 4.297 22.033 4.206 33.279 C4.187 35.659 4.185 38.038 4.186 40.418 C4.181 41.958 4.175 43.499 4.168 45.039 C4.167 45.737 4.166 46.435 4.165 47.154 C4.122 51.593 3.637 55.542 3 60 C-81.48 60 -165.96 60 -253 60 C-253 59.67 -253 59.34 -253 59 C-252.285 58.93 -251.569 58.86 -250.832 58.788 C-247.553 58.458 -244.277 58.104 -241 57.75 C-239.875 57.64 -238.749 57.531 -237.59 57.418 C-229.678 56.539 -223.636 55.182 -217.5 49.812 C-215.374 45.827 -215.324 42.427 -216 38 C-217.347 34.547 -217.347 34.547 -219 32 C-207.37 32.346 -196.369 34.89 -185.062 37.438 C-181.409 38.255 -177.754 39.067 -174.098 39.871 C-173.223 40.064 -172.349 40.256 -171.448 40.454 C-165.22 41.799 -159.02 42.834 -152.694 43.619 C-149.356 44.091 -146.231 45.05 -143 46 C-140.641 46.314 -138.289 46.554 -135.918 46.754 C-134 47 -134 47 -132 48 C-95.509 54.872 -59.25 55.081 -26.77 34.957 C-13.775 25.775 -6.01 14.774 0 0 Z " fill="#AB9F71" transform="translate(788,830)"/>
<path d="M0 0 C0.597 22.144 -0.49 48.748 -16.438 66.062 C-18.612 68.026 -20.248 69.116 -22.938 70.375 C-27.114 69.864 -28.632 67.824 -31.613 64.984 C-39.408 58.504 -49.117 56.033 -59 55 C-58.34 54.01 -57.68 53.02 -57 52 C-56.921 49.668 -56.912 47.332 -57 45 C-58.485 44.505 -58.485 44.505 -60 44 C-60 45.65 -60 47.3 -60 49 C-60.652 49.159 -61.305 49.317 -61.977 49.48 C-68.143 51.104 -68.143 51.104 -73.25 54.75 C-76 57 -76 57 -79.188 57 C-82.071 55.975 -83.122 55.337 -85 53 C-86.932 45.918 -83.785 38.782 -81.423 32.193 C-79.161 25.804 -77.622 19.409 -76.382 12.75 C-75.807 9.838 -75.321 7.452 -73.586 5.008 C-71.12 3.441 -68.838 3.811 -66 4 C-65.974 4.557 -65.948 5.114 -65.922 5.688 C-65.503 11.318 -64.547 16.462 -61 21 C-56.225 24.999 -52.613 25.684 -46.625 25.562 C-45.494 25.547 -45.494 25.547 -44.341 25.531 C-38.523 25.309 -34.116 24.395 -30 20 C-26.06 14.712 -24.987 9.454 -24 3 C-21.502 2.491 -19.002 1.992 -16.5 1.5 C-15.456 1.285 -15.456 1.285 -14.391 1.066 C-9.509 0.117 -4.973 -0.134 0 0 Z " fill="#F9A87A" transform="translate(599,375)"/>
<path d="M0 0 C10.084 4.582 15.858 12.094 20.258 22.105 C22.384 30.274 22.296 38.651 18.391 46.203 C15.416 51.198 12.873 54.234 7.258 56.105 C-0.783 57.179 -6.799 56.536 -13.523 51.875 C-21.672 45.376 -26.664 38.495 -28.742 28.105 C-29.638 19.684 -28.827 13.041 -23.742 6.105 C-17.08 -1.468 -9.573 -3.123 0 0 Z " fill="#FEFEFE" transform="translate(284.7421875,709.89453125)"/>
<path d="M0 0 C1.344 -0.01 1.344 -0.01 2.715 -0.02 C3.696 -0.016 4.676 -0.013 5.686 -0.01 C6.73 -0.015 7.775 -0.019 8.851 -0.024 C12.363 -0.037 15.874 -0.035 19.385 -0.033 C21.898 -0.039 24.411 -0.046 26.924 -0.054 C33.049 -0.069 39.173 -0.076 45.297 -0.077 C50.275 -0.078 55.253 -0.082 60.231 -0.088 C74.343 -0.106 88.456 -0.115 102.568 -0.114 C103.329 -0.113 104.09 -0.113 104.874 -0.113 C106.016 -0.113 106.016 -0.113 107.182 -0.113 C119.529 -0.112 131.876 -0.131 144.222 -0.16 C156.899 -0.188 169.576 -0.202 182.252 -0.2 C189.37 -0.2 196.487 -0.205 203.604 -0.227 C210.297 -0.247 216.989 -0.246 223.682 -0.232 C226.141 -0.23 228.599 -0.234 231.057 -0.246 C234.409 -0.262 237.761 -0.253 241.113 -0.237 C242.089 -0.247 243.065 -0.258 244.07 -0.268 C251.113 -0.197 254.497 1.228 259.527 6.257 C259.197 7.247 258.867 8.237 258.527 9.257 C257.976 9.256 257.426 9.255 256.859 9.254 C224.25 9.187 191.641 9.135 159.032 9.104 C155.118 9.1 151.204 9.096 147.29 9.092 C146.121 9.091 146.121 9.091 144.929 9.09 C132.306 9.077 119.684 9.053 107.061 9.026 C94.112 8.998 81.163 8.981 68.215 8.975 C60.222 8.971 52.23 8.958 44.238 8.934 C38.113 8.916 31.988 8.914 25.863 8.918 C23.348 8.917 20.833 8.911 18.318 8.9 C14.89 8.885 11.464 8.888 8.036 8.897 C7.035 8.888 6.034 8.879 5.003 8.87 C0.059 8.902 -3.511 8.935 -7.473 12.257 C-8.801 14.324 -8.801 14.324 -9.473 16.257 C-10.133 16.257 -10.793 16.257 -11.473 16.257 C-12.907 13.391 -12.78 11.444 -12.473 8.257 C-9.366 2.486 -6.573 0.012 0 0 Z " fill="#FEFEFE" transform="translate(121.47347831726074,586.7427310943604)"/>
<path d="M0 0 C3.28 1.234 6.156 2.649 9.125 4.5 C14.194 7.398 19.259 8.281 25 9 C23.887 15.091 22.489 21.072 20.938 27.062 C19.479 32.714 18.501 38.186 18 44 C17.505 44.99 17.505 44.99 17 46 C16.789 47.886 16.631 49.778 16.5 51.672 C16.418 52.811 16.335 53.951 16.25 55.125 C16.168 56.321 16.085 57.518 16 58.75 C15.836 61.099 15.669 63.448 15.5 65.797 C15.428 66.842 15.356 67.887 15.281 68.964 C14.999 72.012 14.54 74.988 14 78 C5.592 70.27 1.754 59.478 -1.078 48.645 C-2.246 45.177 -2.246 45.177 -5 43 C-9.085 43.033 -11.299 43.442 -14.52 46.004 C-15.655 47.27 -15.655 47.27 -16.812 48.562 C-29.358 61.893 -29.358 61.893 -36 63 C-35.463 57.675 -34.103 53.255 -31.875 48.375 C-31.562 47.679 -31.249 46.983 -30.927 46.266 C-22.987 28.843 -12.627 14.251 0 0 Z " fill="#AB9F71" transform="translate(509,510)"/>
<path d="M0 0 C11.63 0.346 22.631 2.89 33.938 5.438 C37.591 6.255 41.246 7.067 44.902 7.871 C45.777 8.064 46.651 8.256 47.552 8.454 C53.78 9.799 59.98 10.834 66.306 11.619 C69.644 12.091 72.769 13.05 76 14 C78.359 14.314 80.711 14.554 83.082 14.754 C85 15 85 15 87 16 C88.508 16.275 90.024 16.509 91.543 16.719 C92.452 16.846 93.362 16.974 94.299 17.105 C95.252 17.236 96.205 17.366 97.188 17.5 C98.588 17.695 98.588 17.695 100.018 17.895 C101.84 18.148 103.663 18.401 105.486 18.652 C108.659 19.091 111.83 19.544 115 20 C115 22.64 115 25.28 115 28 C65.83 28 16.66 28 -34 28 C-34 27.67 -34 27.34 -34 27 C-33.285 26.93 -32.569 26.86 -31.832 26.788 C-28.553 26.458 -25.277 26.104 -22 25.75 C-20.875 25.64 -19.749 25.531 -18.59 25.418 C-10.678 24.539 -4.636 23.182 1.5 17.812 C3.626 13.827 3.676 10.427 3 6 C1.653 2.547 1.653 2.547 0 0 Z " fill="#FEFEFE" transform="translate(569,862)"/>
<path d="M0 0 C5.054 -0.532 8.471 0.842 12.949 2.93 C21.76 6.021 30.934 6.365 40.188 6.625 C41.33 6.664 42.473 6.702 43.65 6.742 C46.433 6.835 49.217 6.921 52 7 C52.187 7.601 52.374 8.202 52.566 8.822 C55.599 18.295 59.517 23.812 68.363 28.691 C75.325 32.147 82.291 34.487 89.848 36.289 C90.558 36.524 91.268 36.758 92 37 C92.33 37.66 92.66 38.32 93 39 C65.61 39 38.22 39 10 39 C7.593 32.381 5.286 25.933 3.375 19.188 C2.967 17.764 2.558 16.341 2.148 14.918 C1.958 14.252 1.767 13.586 1.571 12.9 C1.042 11.14 0.438 9.402 -0.172 7.668 C-1.103 4.668 -0.876 2.979 0 0 Z " fill="#A15825" transform="translate(464,821)"/>
<path d="M0 0 C3.81 -0.077 7.62 -0.136 11.43 -0.175 C13.387 -0.2 15.343 -0.245 17.299 -0.291 C18.456 -0.298 19.613 -0.306 20.805 -0.314 C21.782 -0.329 22.759 -0.343 23.766 -0.358 C27.192 0.246 28.902 1.79 31.43 4.112 C31.158 7.377 30.666 8.853 28.43 11.299 C24.48 13.686 20.934 14.337 16.43 15.112 C15.586 15.266 14.742 15.421 13.873 15.58 C3.102 17.411 -7.741 17.987 -18.633 18.674 C-21.572 18.862 -24.51 19.051 -27.449 19.245 C-29.264 19.365 -31.079 19.481 -32.895 19.592 C-34.122 19.673 -34.122 19.673 -35.375 19.755 C-36.091 19.8 -36.807 19.845 -37.544 19.891 C-39.626 20.118 -41.546 20.587 -43.57 21.112 C-45.011 21.189 -46.455 21.22 -47.898 21.209 C-48.698 21.206 -49.497 21.203 -50.32 21.2 C-51.145 21.191 -51.97 21.183 -52.82 21.174 C-53.661 21.17 -54.501 21.165 -55.367 21.161 C-57.435 21.149 -59.503 21.131 -61.57 21.112 C-61.079 20.274 -60.588 19.436 -60.082 18.573 C-58.368 14.649 -58.262 11.991 -58.383 7.737 C-58.41 6.492 -58.437 5.246 -58.465 3.963 C-58.5 3.022 -58.534 2.081 -58.57 1.112 C-43.136 0.786 -27.701 0.489 -12.266 0.228 C-8.177 0.158 -4.088 0.084 0 0 Z " fill="#DEDEDE" transform="translate(534.5703125,866.88818359375)"/>
<path d="M0 0 C1.14 0.004 1.14 0.004 2.302 0.009 C3.504 0.008 3.504 0.008 4.73 0.006 C7.436 0.005 10.141 0.01 12.847 0.016 C14.778 0.016 16.709 0.016 18.64 0.015 C23.9 0.015 29.16 0.021 34.42 0.028 C39.911 0.034 45.402 0.035 50.892 0.036 C61.298 0.039 71.703 0.047 82.108 0.057 C93.951 0.068 105.793 0.074 117.636 0.079 C142.004 0.089 166.373 0.107 190.741 0.129 C190.081 1.119 189.421 2.109 188.741 3.129 C201.611 3.129 214.481 3.129 227.741 3.129 C228.071 2.469 228.401 1.809 228.741 1.129 C257.451 0.634 257.451 0.634 286.741 0.129 C286.741 1.779 286.741 3.429 286.741 5.129 C187.081 5.129 87.421 5.129 -15.259 5.129 C-14.599 4.139 -13.939 3.149 -13.259 2.129 C-10.937 1.722 -8.602 1.385 -6.259 1.129 C-4.529 -0.601 -2.306 0.007 0 0 Z " fill="#2C222A" transform="translate(598.2590118050575,889.8709186911583)"/>
<path d="M0 0 C9.123 5.657 15.672 14.074 19.34 24.172 C21.634 33.999 20.73 44.071 16 53 C12.417 58.729 7.435 62.858 1 65 C-8.92 66.564 -16.787 64.702 -25 59 C-33.932 51.73 -40.485 42.623 -42 31 C-42.962 20.344 -41.128 12.425 -34.25 4.125 C-24.531 -5.97 -12.219 -6.773 0 0 Z M-32.664 11.27 C-37.277 19.245 -37.105 27.491 -34.875 36.25 C-31.588 45.807 -24.313 52.17 -16.312 57.938 C-9.996 59.964 -2.073 60.534 4 57.438 C9.108 53.287 12.644 48.532 14 42 C14.949 30.172 12.493 21.248 5 12 C-1.076 5.628 -6.927 1.975 -15.875 1.375 C-23.688 1.61 -28.142 5.102 -32.664 11.27 Z " fill="#342D35" transform="translate(292,707)"/>
<path d="M0 0 C4.524 3.648 8.12 7.563 11.188 12.5 C6.828 12.5 4.435 9.876 1.125 7.312 C-7.421 0.91 -15.661 -3.227 -25.75 -6.688 C-26.477 -6.938 -27.205 -7.188 -27.954 -7.447 C-38.46 -10.895 -48.596 -11.864 -59.625 -11.812 C-61.488 -11.805 -61.488 -11.805 -63.388 -11.798 C-71.978 -11.687 -79.569 -11.015 -87.812 -8.5 C-89.241 -8.106 -90.671 -7.716 -92.102 -7.328 C-109.368 -2.559 -128.252 4.543 -137.902 20.605 C-140.718 26.467 -140.482 33.158 -139.812 39.5 C-138.526 43.105 -136.795 46.239 -134.812 49.5 C-134.468 50.23 -134.124 50.959 -133.77 51.711 C-132.52 54.047 -131.187 54.421 -128.812 55.5 C-127.062 57.125 -127.062 57.125 -125.812 58.5 C-133.199 57.631 -137.724 52.979 -142.266 47.492 C-146.505 42.033 -147.484 37.559 -147.281 30.719 C-145.748 20.192 -138.527 10.683 -130.248 4.292 C-119.856 -3.192 -108.498 -8.566 -96.25 -12.25 C-95.26 -12.548 -95.26 -12.548 -94.251 -12.853 C-63.835 -21.491 -26.244 -18.76 0 0 Z " fill="#EDECED" transform="translate(591.8125,255.5)"/>
<path d="M0 0 C0.751 -0.029 1.502 -0.058 2.275 -0.088 C6.174 -0.132 8.118 0.04 11.523 2.125 C13.562 4.312 13.562 4.312 14.75 7.625 C14.523 12.097 13.422 13.672 10.363 16.801 C5.446 20.929 0.657 21.643 -5.52 21.516 C-7.438 21.312 -7.438 21.312 -9.438 20.312 C-14.767 19.972 -14.767 19.972 -19.438 22.312 C-23.179 22.989 -26.872 23.142 -30.289 21.332 C-34.057 18.316 -36.015 15.608 -36.875 10.938 C-36.241 7.131 -34.453 4.618 -31.438 2.312 C-28.248 1.469 -25.161 1.472 -21.875 1.5 C-20.186 1.476 -18.497 1.448 -16.809 1.418 C-15.694 1.42 -15.694 1.42 -14.556 1.423 C-9.672 1.169 -4.981 0.064 0 0 Z " fill="#F9A87A" transform="translate(544.4375,449.6875)"/>
<path d="M0 0 C-5.376 1.756 -10.301 2.393 -15.938 2.625 C-16.717 2.664 -17.496 2.702 -18.299 2.742 C-20.199 2.835 -22.099 2.919 -24 3 C-24 3.33 -24 3.66 -24 4 C7.35 4.33 38.7 4.66 71 5 C71 5.33 71 5.66 71 6 C-34.93 6 -140.86 6 -250 6 C-250 5.67 -250 5.34 -250 5 C-207.43 4.67 -164.86 4.34 -121 4 C-120.67 3.34 -120.34 2.68 -120 2 C-155.64 2 -191.28 2 -228 2 C-228 1.67 -228 1.34 -228 1 C-226.894 0.996 -225.788 0.992 -224.649 0.987 C-197.741 0.884 -170.834 0.775 -143.926 0.661 C-130.913 0.605 -117.901 0.552 -104.889 0.503 C-93.547 0.46 -82.205 0.413 -70.864 0.363 C-64.859 0.337 -58.853 0.312 -52.848 0.291 C-47.195 0.271 -41.541 0.247 -35.888 0.22 C-33.814 0.21 -31.74 0.202 -29.667 0.197 C-26.832 0.188 -23.997 0.174 -21.162 0.158 C-19.937 0.157 -19.937 0.157 -18.686 0.155 C-14.937 0.129 -11.302 -0.04 -7.584 -0.537 C-4.527 -0.932 -2.826 -1.06 0 0 Z " fill="#1A161F" transform="translate(462,889)"/>
<path d="M0 0 C0.543 0.283 1.086 0.567 1.645 0.859 C2.361 1.226 3.077 1.593 3.814 1.971 C4.522 2.337 5.23 2.703 5.959 3.08 C11.214 5.449 17.296 4.462 22.688 3 C23.451 2.67 24.214 2.34 25 2 C24.116 6.981 23.165 11.758 21.375 16.5 C19.097 22.99 19.541 29.365 21 36 C20.336 36.436 19.672 36.871 18.988 37.32 C13.807 40.815 9.746 44.005 6 49 C5.013 50.013 4.016 51.016 3 52 C0.36 45.432 -0.415 39.759 -0.293 32.715 C-0.287 31.302 -0.287 31.302 -0.28 29.861 C-0.263 26.886 -0.226 23.912 -0.188 20.938 C-0.172 18.907 -0.159 16.876 -0.146 14.846 C-0.114 9.897 -0.062 4.949 0 0 Z " fill="#F9A87A" transform="translate(489,397)"/>
<path d="M0 0 C4.892 0.653 9.377 2.022 14.012 3.66 C14.773 3.926 15.535 4.191 16.32 4.465 C18.778 5.324 21.233 6.192 23.688 7.062 C24.523 7.358 25.359 7.653 26.22 7.957 C52.141 17.122 78.724 27.116 100 45 C100.919 45.677 101.838 46.354 102.785 47.051 C103.516 47.694 104.247 48.337 105 49 C105 49.99 105 50.98 105 52 C101 52 101 52 99.631 50.713 C99.093 50.148 98.554 49.582 98 49 C93.468 46.298 88.752 43.917 84.062 41.5 C83.373 41.143 82.683 40.787 81.973 40.419 C68.014 33.237 53.75 27.384 39 22 C36.729 21.157 34.458 20.313 32.188 19.469 C21.571 15.557 10.968 11.806 0 9 C0 6.03 0 3.06 0 0 Z " fill="#FEFEFE" transform="translate(678,498)"/>
<path d="M0 0 C0.495 0.99 0.495 0.99 1 2 C0.015 4.512 0.015 4.512 -1.535 7.688 C-2.095 8.852 -2.654 10.016 -3.23 11.216 C-3.53 11.833 -3.829 12.45 -4.138 13.086 C-9.639 24.473 -14.657 35.776 -18 48 C-18.243 48.864 -18.485 49.729 -18.735 50.619 C-29.249 88.765 -30.997 128.73 -34 168 C-34.99 168 -35.98 168 -37 168 C-37.888 115.448 -36.502 43.566 -1 1 C-0.67 0.67 -0.34 0.34 0 0 Z " fill="#EDECED" transform="translate(602,564)"/>
<path d="M0 0 C0.438 0.364 0.877 0.727 1.328 1.102 C3.499 2.822 5.724 4.421 8 6 C8.825 6.572 9.65 7.145 10.5 7.734 C21.529 14.314 34.721 13.005 47 11 C47.495 16.94 47.495 16.94 48 23 C38.218 26.849 25.22 28.718 15.164 24.676 C11.904 22.985 8.982 21.138 6 19 C5.14 18.46 4.28 17.92 3.395 17.363 C1.055 15.7 -0.489 14.443 -2 12 C-2.395 8.155 -1.987 4.729 -1 1 C-0.67 0.67 -0.34 0.34 0 0 Z " fill="#FEFEFE" transform="translate(534,548)"/>
<path d="M0 0 C1.938 0.375 1.938 0.375 4 1 C5.434 3.869 5.269 5.796 5 9 C3.929 11.672 2.833 14.094 1.5 16.625 C1.136 17.33 0.772 18.035 0.397 18.762 C-9.014 36.659 -22.343 53.004 -35.526 68.268 C-37.1 70.096 -38.657 71.936 -40.215 73.777 C-41.78 75.619 -43.328 77.318 -45.066 79.004 C-48.16 82.217 -49.28 85.302 -49.574 89.707 C-49.633 90.572 -49.692 91.436 -49.753 92.327 C-49.931 96.221 -49.992 100.102 -50 104 C-50.99 104.495 -50.99 104.495 -52 105 C-55.128 98.743 -54.082 87.521 -52.082 81.012 C-50.593 78.414 -48.953 76.272 -47 74 C-46.38 73.262 -46.38 73.262 -45.748 72.51 C-43.292 69.588 -40.795 66.704 -38.281 63.832 C-26.203 49.894 -15.473 34.587 -5.938 18.812 C-5.567 18.201 -5.197 17.589 -4.815 16.958 C-1.289 11.008 0.273 6.969 0 0 Z " fill="#EDECED" transform="translate(641,465)"/>
<path d="M0 0 C-1.381 4.971 -3.679 6.374 -8 9 C-10.491 10.293 -13.026 11.487 -15.562 12.688 C-23.28 16.454 -30.099 20.863 -37 26 C-37.537 26.394 -38.074 26.789 -38.628 27.195 C-55.284 39.453 -68.614 53.387 -80.473 70.327 C-81.603 71.918 -82.796 73.464 -84 75 C-84.66 75 -85.32 75 -86 75 C-84.639 64.626 -75.541 54.732 -69 47 C-68.487 46.364 -67.974 45.729 -67.445 45.074 C-64.377 41.334 -61.06 38.119 -57.363 35 C-55.626 33.53 -53.919 32.025 -52.23 30.5 C-39.072 18.743 -23.828 10.592 -8 3 C-6.902 2.433 -5.803 1.866 -4.672 1.281 C-2 0 -2 0 0 0 Z " fill="#EDECED" transform="translate(481,535)"/>
<path d="M0 0 C0.859 0.375 1.717 0.75 2.602 1.137 C7.474 3.415 11.756 5.566 15 10 C15.312 13.312 15.312 13.312 15 16 C9.959 15.441 5.723 14.255 1 12.438 C-7.673 9.319 -16.196 8.863 -25.309 10.648 C-26.197 10.764 -27.085 10.88 -28 11 C-30 9 -30 9 -30.125 5.688 C-28.771 1.249 -27.493 0.043 -23.508 -2.121 C-15.649 -4.875 -7.422 -3.268 0 0 Z " fill="#2C222A" transform="translate(563,348)"/>
<path d="M0 0 C17.918 0.507 38.625 8.789 52.052 20.552 C52.877 21.52 52.877 21.52 53.72 22.509 C53.47 25.259 53.47 25.259 52.72 27.509 C49.303 26.897 47.37 25.635 44.657 23.509 C28.143 11.72 10.741 7.403 -9.28 6.509 C-9.905 4.634 -9.905 4.634 -10.28 2.509 C-7.241 -0.531 -4.161 0.018 0 0 Z " fill="#2C222A" transform="translate(696.2802734375,725.491455078125)"/>
<path d="M0 0 C0.99 0 1.98 0 3 0 C3 0.66 3 1.32 3 2 C3.949 1.835 4.897 1.67 5.875 1.5 C9.001 1.066 12.095 0.843 15.25 0.75 C16.495 0.711 16.495 0.711 17.766 0.672 C20 1 20 1 21.773 2.176 C23.452 4.673 23.399 6.448 23.375 9.438 C23.383 10.385 23.39 11.332 23.398 12.309 C22.939 15.409 22.168 16.765 20 19 C15.648 20.451 11.543 20.649 7 20 C3.875 18.325 1.607 16.215 0 13 C-0.071 10.793 -0.084 8.583 -0.062 6.375 C-0.053 5.186 -0.044 3.998 -0.035 2.773 C-0.024 1.858 -0.012 0.943 0 0 Z " fill="#F9A87A" transform="translate(491,377)"/>
<path d="M0 0 C4.625 3.442 6.614 7.543 8 13 C8.188 16 8.188 16 8 18 C7.175 17.346 6.35 16.693 5.5 16.02 C1.81 13.565 -1.674 13.505 -6 13.688 C-6.686 13.697 -7.372 13.707 -8.078 13.717 C-12.132 13.806 -16.021 14.235 -20 15 C-20 12.36 -20 9.72 -20 7 C-17.799 5.818 -15.591 4.655 -13.375 3.5 C-12.758 3.166 -12.14 2.832 -11.504 2.488 C-7.501 0.424 -4.497 -0.571 0 0 Z " fill="#F9A87A" transform="translate(510,358)"/>
<path d="M0 0 C0.99 0.33 1.98 0.66 3 1 C1.702 3.774 0.266 6.093 -1.652 8.477 C-13.227 23.091 -22.507 38.562 -31.102 55.086 C-31.445 55.746 -31.789 56.407 -32.143 57.087 C-33.018 59.04 -33.547 60.913 -34 63 C-34.66 63 -35.32 63 -36 63 C-35.463 57.675 -34.103 53.255 -31.875 48.375 C-31.562 47.679 -31.249 46.983 -30.927 46.266 C-22.987 28.843 -12.627 14.251 0 0 Z " fill="#EDECED" transform="translate(509,510)"/>
<path d="M0 0 C6.066 4.623 8.916 10.393 10.977 17.664 C11.102 20.531 11.102 20.531 10.977 22.664 C8.977 20.664 8.977 20.664 7.727 16.977 C5.586 11.089 2.251 7.164 -2.961 3.727 C-9.516 1.32 -19.451 1.601 -26.023 3.664 C-29.023 -0.086 -29.023 -0.086 -29.023 -2.336 C-18.889 -5.454 -9.106 -6.012 0 0 Z " fill="#EDECED" transform="translate(637.0234375,263.3359375)"/>
<path d="M0 0 C0.33 0 0.66 0 1 0 C1 2.64 1 5.28 1 8 C-48.17 8 -97.34 8 -148 8 C-148 7.67 -148 7.34 -148 7 C-145.292 6.662 -142.584 6.33 -139.875 6 C-139.114 5.905 -138.354 5.809 -137.57 5.711 C-133.351 5.202 -129.26 4.891 -125 5 C-125 5.33 -125 5.66 -125 6 C-83.75 6.33 -42.5 6.66 0 7 C0 4.69 0 2.38 0 0 Z " fill="#CECDCF" transform="translate(683,882)"/>
<path d="M0 0 C4.173 0.194 5.771 0.796 8.938 3.625 C11 7 11 7 11.188 10.5 C9.788 14.624 7.842 17.769 4 20 C1.801 19.656 1.801 19.656 0 19 C1.001 16.768 1.777 15.197 3.625 13.562 C5.272 12.009 5.272 12.009 5.188 9.312 C5.126 8.549 5.064 7.786 5 7 C4.361 6.773 3.721 6.546 3.062 6.312 C1 5 1 5 0.25 2.375 C0.168 1.591 0.085 0.808 0 0 Z " fill="#342D35" transform="translate(628,377)"/>
<path d="M0 0 C-1.003 3.233 -2.026 4.015 -5 5.75 C-10.047 7.657 -15.913 8.302 -20.973 6.168 C-22.625 5.125 -22.625 5.125 -25 3 C-25 2.34 -25 1.68 -25 1 C-23.793 1.248 -23.793 1.248 -22.562 1.5 C-14.316 2.657 -7.911 0 0 0 Z " fill="#342D35" transform="translate(542,455)"/>
<path d="M0 0 C0.66 0.33 1.32 0.66 2 1 C-1.63 4.63 -5.26 8.26 -9 12 C-9.33 11.01 -9.66 10.02 -10 9 C-8.899 7.872 -7.794 6.748 -6.688 5.625 C-6.073 4.999 -5.458 4.372 -4.824 3.727 C-3 2 -3 2 0 0 Z " fill="#E8B35C" transform="translate(670,686)"/>
<path d="M0 0 C0.33 0 0.66 0 1 0 C1 5.28 1 10.56 1 16 C0.34 16.33 -0.32 16.66 -1 17 C-2.478 14.043 -2.06 11.258 -2 8 C-1.67 8 -1.34 8 -1 8 C-0.67 5.36 -0.34 2.72 0 0 Z " fill="#DEDEDE" transform="translate(590,553)"/>
<path d="M0 0 C5.94 0.99 5.94 0.99 12 2 C9.028 3.981 7.506 4.743 4 5 C1.688 3.688 1.688 3.688 0 2 C0 1.34 0 0.68 0 0 Z " fill="#342D35" transform="translate(517,456)"/>
<path d="M0 0 C4.95 0.33 9.9 0.66 15 1 C15 1.33 15 1.66 15 2 C9.293 2.993 3.786 3.105 -2 3 C-1.34 2.01 -0.68 1.02 0 0 Z " fill="#EDECED" transform="translate(475,885)"/>
<path d="M0 0 C3.819 4.514 5.347 9.097 5 15 C2.935 12.935 2.395 11.754 1.438 9.062 C1.189 8.373 0.94 7.683 0.684 6.973 C0.111 5.319 -0.447 3.66 -1 2 C-0.67 1.34 -0.34 0.68 0 0 Z " fill="#CECDCF" transform="translate(643,271)"/>
<path d="M0 0 C0.901 0.018 1.802 0.036 2.73 0.055 C3.418 0.078 4.105 0.101 4.812 0.125 C4.812 0.455 4.812 0.785 4.812 1.125 C4.209 1.162 3.606 1.2 2.984 1.238 C-3.181 1.688 -3.181 1.688 -8.188 5.125 C-8.188 4.135 -8.188 3.145 -8.188 2.125 C-4.874 -0.084 -3.843 -0.1 0 0 Z " fill="#C68063" transform="translate(383.1875,753.875)"/>
<path d="M0 0 C1 2 1 2 0.375 4.5 C-1 7 -1 7 -3.625 8.312 C-4.409 8.539 -5.192 8.766 -6 9 C-4.473 5.564 -2.401 2.881 0 0 Z " fill="#EDECED" transform="translate(602,564)"/>
<path d="M0 0 C0.33 0.66 0.66 1.32 1 2 C-0.98 4.31 -2.96 6.62 -5 9 C-5.66 8.67 -6.32 8.34 -7 8 C-4.69 5.36 -2.38 2.72 0 0 Z " fill="#534850" transform="translate(500,508)"/>
<path d="M0 0 C1.32 0 2.64 0 4 0 C4 1.65 4 3.3 4 5 C2.02 4.34 0.04 3.68 -2 3 C-1.34 2.01 -0.68 1.02 0 0 Z " fill="#423436" transform="translate(638,467)"/>
<path d="M0 0 C2.475 0.99 2.475 0.99 5 2 C4.67 2.99 4.34 3.98 4 5 C2.68 4.34 1.36 3.68 0 3 C0 2.01 0 1.02 0 0 Z " fill="#2C222A" transform="translate(556,408)"/>
</svg>